<svg width="20" height="21" viewBox="0 0 20 21" fill="none" xmlns="http://www.w3.org/2000/svg">
<rect y="0.658203" width="20" height="20" rx="10" fill="white"/>
<path d="M10.2037 12.7776C9.64544 12.7776 9.11 12.5558 8.71523 12.161C8.32045 11.7663 8.09866 11.2308 8.09866 10.6725C8.0988 10.1143 8.32065 9.579 8.71541 9.18434C9.11017 8.78968 9.64553 8.56797 10.2037 8.56797C10.7619 8.56797 11.2973 8.78968 11.6921 9.18434C12.0868 9.579 12.3087 10.1143 12.3088 10.6725C12.3088 11.2308 12.087 11.7663 11.6922 12.161C11.2975 12.5558 10.762 12.7776 10.2037 12.7776ZM10.2037 7.51465C9.3664 7.51478 8.5634 7.84747 7.97131 8.43956C7.37922 9.03165 7.04653 9.83465 7.04639 10.672C7.04653 11.5093 7.37922 12.3123 7.97131 12.9044C8.5634 13.4965 9.3664 13.8292 10.2037 13.8294C11.0411 13.8292 11.8441 13.4965 12.4362 12.9044C13.0283 12.3123 13.3609 11.5093 13.3611 10.672C13.3609 9.83465 13.0283 9.03165 12.4362 8.43956C11.8441 7.84747 11.0411 7.51478 10.2037 7.51465Z" fill="#0D0D0D"/>
<path d="M15.4658 14.8827C15.4658 15.1618 15.3549 15.4295 15.1576 15.6268C14.9603 15.8242 14.6926 15.9351 14.4135 15.9351H5.99375C5.71462 15.9351 5.44691 15.8242 5.24949 15.6269C5.05206 15.4296 4.94109 15.1619 4.94095 14.8827V6.46299C4.94095 6.18377 5.05187 5.91598 5.24931 5.71854C5.44674 5.5211 5.71453 5.41019 5.99375 5.41019H14.4135C14.5518 5.41019 14.6886 5.43742 14.8164 5.49034C14.9441 5.54325 15.0601 5.62081 15.1578 5.71858C15.2555 5.81634 15.333 5.9324 15.3858 6.06013C15.4387 6.18786 15.4659 6.32476 15.4658 6.46299V14.8827ZM14.4135 4.35948H5.99375C5.43545 4.35948 4.90001 4.58126 4.50523 4.97604C4.11046 5.37082 3.88867 5.90624 3.88867 6.46454V14.8843C3.88881 15.4425 4.11066 15.9778 4.50542 16.3725C4.90018 16.7671 5.43554 16.9889 5.99375 16.9889H14.4135C14.9718 16.9889 15.507 16.7671 15.9018 16.3725C16.2966 15.9778 16.5185 15.4425 16.5186 14.8843V6.46299C16.5186 5.90468 16.2968 5.36925 15.902 4.97448C15.5072 4.5797 14.9718 4.35791 14.4135 4.35791" fill="#0D0D0D"/>
</svg>
