<?xml version="1.0" encoding="UTF-8"?>
<svg id="Layer_1" data-name="Layer 1" xmlns="http://www.w3.org/2000/svg" viewBox="0 0 1107.89 691.18">
  <defs>
    <style>
      .cls-1 {
        fill: #0a3651;
      }

      .cls-2 {
        fill: #419bc4;
      }
    </style>
  </defs>
  <g>
    <g>
      <path class="cls-1" d="M656.72,263.35h-20.19v21.24h-6.35v-48.12h29.81v5.18h-23.46v16.5h20.19v5.2Z"/>
      <path class="cls-1" d="M692.61,272h-20.16l-4.53,12.6h-6.53l18.36-48.12h5.56l18.39,48.12h-6.5l-4.6-12.6ZM674.37,266.82h16.36l-8.2-22.51-8.16,22.51Z"/>
      <path class="cls-1" d="M722.45,236.48l15.73,39.25,15.73-39.25h8.23v48.12h-6.33v-18.74l.58-20.23-15.8,38.97h-4.85l-15.78-38.87.63,20.13v18.74h-6.35v-48.12h8.2Z"/>
      <path class="cls-1" d="M784.22,284.6h-6.35v-48.12h6.35v48.12Z"/>
      <path class="cls-1" d="M806.26,279.42h22.81v5.18h-29.19v-48.12h6.38v42.94Z"/>
      <path class="cls-1" d="M847.13,260.64l12.56-24.16h7.2l-16.6,30.17v17.94h-6.33v-17.94l-16.6-30.17h7.26l12.5,24.16Z"/>
    </g>
    <g>
      <path class="cls-1" d="M647.82,349.41h-11.3v19.46h-6.38v-48.12h15.93c5.43,0,9.6,1.23,12.51,3.7,2.92,2.47,4.38,6.06,4.38,10.78,0,3-.82,5.6-2.43,7.83-1.62,2.22-3.87,3.88-6.76,4.98l11.31,20.43v.4h-6.81l-10.45-19.46ZM636.53,344.21h9.75c3.15,0,5.66-.82,7.51-2.45,1.87-1.63,2.8-3.82,2.8-6.55,0-2.98-.88-5.27-2.67-6.86-1.77-1.58-4.33-2.38-7.68-2.42h-9.71v18.28Z"/>
      <path class="cls-1" d="M703.12,346.63h-20.86v17.06h24.23v5.18h-30.57v-48.12h30.24v5.18h-23.89v15.51h20.86v5.18Z"/>
      <path class="cls-1" d="M732.63,347.43c-5.43-1.57-9.4-3.5-11.88-5.76-2.48-2.28-3.72-5.1-3.72-8.45,0-3.8,1.52-6.93,4.55-9.41,3.02-2.47,6.96-3.72,11.81-3.72,3.3,0,6.25.65,8.83,1.92,2.6,1.28,4.6,3.05,6.01,5.3,1.43,2.25,2.13,4.7,2.13,7.36h-6.36c0-2.92-.93-5.22-2.78-6.88-1.85-1.67-4.47-2.5-7.83-2.5-3.13,0-5.56.68-7.33,2.07-1.75,1.38-2.62,3.3-2.62,5.75,0,1.97.83,3.62,2.48,4.98,1.67,1.35,4.5,2.6,8.5,3.72,4,1.13,7.13,2.37,9.4,3.73,2.25,1.35,3.93,2.93,5.02,4.73,1.1,1.82,1.63,3.93,1.63,6.38,0,3.9-1.52,7.03-4.55,9.36-3.05,2.35-7.11,3.53-12.2,3.53-3.32,0-6.4-.63-9.26-1.9-2.87-1.27-5.07-3.02-6.61-5.22-1.57-2.2-2.33-4.7-2.33-7.5h6.38c0,2.9,1.07,5.2,3.22,6.9,2.15,1.68,5.02,2.52,8.61,2.52,3.35,0,5.91-.68,7.7-2.05,1.78-1.37,2.67-3.22,2.67-5.58s-.82-4.18-2.47-5.47c-1.65-1.3-4.65-2.57-9-3.82Z"/>
      <path class="cls-1" d="M799.68,346.36c0,4.72-.8,8.83-2.38,12.35-1.58,3.52-3.83,6.2-6.75,8.05-2.9,1.85-6.3,2.78-10.18,2.78s-7.15-.93-10.08-2.8c-2.92-1.87-5.2-4.52-6.81-7.96-1.62-3.45-2.45-7.45-2.5-11.98v-3.47c0-4.63.8-8.71,2.42-12.26,1.6-3.55,3.88-6.26,6.81-8.15,2.95-1.88,6.31-2.83,10.1-2.83s7.26.93,10.2,2.8c2.95,1.87,5.22,4.57,6.8,8.1,1.58,3.53,2.38,7.65,2.38,12.35v3.03ZM793.36,343.26c0-5.71-1.15-10.1-3.43-13.15-2.3-3.05-5.5-4.57-9.63-4.57s-7.16,1.52-9.46,4.57c-2.3,3.05-3.48,7.3-3.55,12.71v3.53c0,5.53,1.17,9.88,3.48,13.05,2.33,3.15,5.53,4.73,9.6,4.73s7.28-1.48,9.53-4.47c2.25-3,3.4-7.26,3.47-12.85v-3.57Z"/>
      <path class="cls-1" d="M847.13,320.75v32.72c-.02,4.53-1.45,8.25-4.27,11.13-2.83,2.88-6.68,4.52-11.53,4.87l-1.68.07c-5.27,0-9.46-1.43-12.6-4.27-3.12-2.85-4.72-6.76-4.75-11.73v-32.79h6.28v32.59c0,3.48.95,6.18,2.87,8.11,1.92,1.92,4.65,2.88,8.2,2.88s6.35-.95,8.25-2.87c1.9-1.92,2.87-4.62,2.87-8.1v-32.62h6.36Z"/>
      <path class="cls-1" d="M878.85,349.41h-11.3v19.46h-6.38v-48.12h15.93c5.43,0,9.6,1.23,12.51,3.7,2.92,2.47,4.38,6.06,4.38,10.78,0,3-.82,5.6-2.43,7.83-1.62,2.22-3.87,3.88-6.76,4.98l11.31,20.43v.4h-6.81l-10.45-19.46ZM867.56,344.21h9.75c3.15,0,5.66-.82,7.51-2.45,1.87-1.63,2.8-3.82,2.8-6.55,0-2.98-.88-5.27-2.67-6.86-1.77-1.58-4.33-2.38-7.68-2.42h-9.71v18.28Z"/>
      <path class="cls-1" d="M942.35,353.61c-.6,5.08-2.48,9.01-5.65,11.78-3.15,2.77-7.36,4.15-12.6,4.15-5.68,0-10.25-2.05-13.68-6.11-3.42-4.08-5.13-9.53-5.13-16.36v-4.63c0-4.47.8-8.4,2.4-11.8,1.6-3.4,3.87-6,6.78-7.81,2.93-1.82,6.33-2.73,10.18-2.73,5.12,0,9.21,1.43,12.3,4.28,3.08,2.85,4.88,6.8,5.4,11.85h-6.38c-.55-3.85-1.75-6.63-3.58-8.35-1.85-1.73-4.42-2.58-7.73-2.58-4.05,0-7.23,1.5-9.53,4.5-2.3,3-3.45,7.26-3.45,12.8v4.67c0,5.23,1.08,9.38,3.27,12.46,2.18,3.1,5.23,4.63,9.16,4.63,3.52,0,6.23-.8,8.11-2.4,1.88-1.58,3.13-4.37,3.75-8.33h6.38Z"/>
      <path class="cls-1" d="M982.27,346.63h-20.86v17.06h24.23v5.18h-30.57v-48.12h30.24v5.18h-23.89v15.51h20.86v5.18Z"/>
    </g>
    <g>
      <path class="cls-1" d="M665.59,438.55c-.6,5.08-2.48,9.01-5.65,11.78-3.15,2.77-7.36,4.15-12.6,4.15-5.68,0-10.25-2.05-13.68-6.11-3.42-4.08-5.13-9.53-5.13-16.36v-4.63c0-4.47.8-8.4,2.4-11.8,1.6-3.4,3.87-6,6.78-7.81,2.93-1.82,6.33-2.73,10.18-2.73,5.12,0,9.21,1.43,12.3,4.28,3.08,2.85,4.88,6.8,5.4,11.85h-6.38c-.55-3.85-1.75-6.63-3.58-8.35-1.85-1.73-4.42-2.58-7.73-2.58-4.05,0-7.23,1.5-9.53,4.5-2.3,3-3.45,7.26-3.45,12.8v4.67c0,5.23,1.08,9.38,3.27,12.46,2.18,3.1,5.23,4.63,9.16,4.63,3.52,0,6.23-.8,8.11-2.4,1.88-1.58,3.13-4.37,3.75-8.33h6.38Z"/>
      <path class="cls-1" d="M705.51,431.56h-20.86v17.06h24.23v5.18h-30.57v-48.12h30.24v5.18h-23.89v15.51h20.86v5.18Z"/>
      <path class="cls-1" d="M757.81,453.81h-6.38l-24.23-37.09v37.09h-6.38v-48.12h6.38l24.29,37.24v-37.24h6.31v48.12Z"/>
      <path class="cls-1" d="M806.39,410.87h-15.48v42.94h-6.3v-42.94h-15.45v-5.18h37.22v5.18Z"/>
      <path class="cls-1" d="M835.23,434.35h-11.3v19.46h-6.38v-48.12h15.93c5.43,0,9.6,1.23,12.51,3.7,2.92,2.47,4.38,6.06,4.38,10.78,0,3-.82,5.6-2.43,7.83-1.62,2.22-3.87,3.88-6.76,4.98l11.31,20.43v.4h-6.81l-10.45-19.46ZM823.94,429.15h9.75c3.15,0,5.66-.82,7.51-2.45,1.87-1.63,2.8-3.82,2.8-6.55,0-2.98-.88-5.27-2.67-6.86-1.77-1.58-4.33-2.38-7.68-2.42h-9.71v18.28Z"/>
      <path class="cls-1" d="M890.53,431.56h-20.86v17.06h24.23v5.18h-30.57v-48.12h30.24v5.18h-23.89v15.51h20.86v5.18Z"/>
    </g>
  </g>
  <path class="cls-2" d="M475.91,222.92c-56.89-49.22-159.28-85.39-230.75-42.38-60.07,36.17-87.51,131.97-76.7,198.91,12,74.02,55.08,123.64,131.97,141.52,37.49,8.73,79.31,16.2,114.35-6.18,54.05-34.51,84.76-69.98,106.71-130.09,21.95-60.1,3.14-119.57-45.59-161.79ZM504.44,393.54c-18.51,39.93-50.38,70.98-90.22,95.34-53.92,32.93-119.41,30.35-166.25-17.12-26.22-26.55-49.29-50.02-57.85-83.87-25.88-102.15,40.17-200.86,137.52-202.65,53.82-.96,80.7,14.38,122.55,46.71,51.11,39.47,85.32,94.58,54.25,161.59Z"/>
  <path class="cls-1" d="M560.04,287.8c-34.68-117.09-54.05-165.72-182.98-165.72-61.89,0-140.44-4.26-202.09,39.11-36.79,25.89-56.63,92-52.89,145.46,3.67,52.48,13.29,124.83,27.6,169.62,7.21,21.95,18.78,48.33,39.24,61.62,38.05,23.93,90.22,30.35,136.04,31.11,77.72-.79,166.38-19.8,207.44-89.06,31.44-52.96,46.88-127.27,27.64-192.14ZM530.32,422.35c-44.1,102.61-113.59,142.71-199.08,126.65-59.6-11.21-133.59-1.13-157.66-72.73-27.93-83.11-37.59-158.65-29.09-201.16,9.55-47.97,35.34-91.94,77.06-115.11,32-17.75,133.06-26.94,190.78-8.03,90.35,29.62,100.27,62.68,130.48,136.47,18.05,44.2,6.55,89.59-12.5,133.92Z"/>
  <path class="cls-1" d="M450.22,422.13c-13.75,29.06-42.33,47.16-68.99,54.85-35.95,10.35-122.6-22.84-140.07-57.28-4.97-9.8,16.19-4.45,22.71,1.82,4.75,4.57,22.31,17.66,32.6,25.08,52.17,37.61,105.59,16.91,135.29-29.56,5.68-8.89,26.83-12.58,18.46,5.1Z"/>
  <path class="cls-1" d="M428.41,262.94c-23.14-16.53-66.2-30.99-104.79-37.24-25.27-4.1-43.98,14.1-60.51,27.32-13.68,10.95-35.31,12.74-23.29-.96,32.56-37.09,84.01-48.3,132.64-33.96,16.17,4.77,59.56,19.98,70.68,41.26,5.67,10.84-5.05,10.5-14.75,3.57Z"/>
  <path class="cls-1" d="M274.1,372.98h0c-.42.21-.88.33-1.27.33-3.24,0-6.11-2.01-10.43-12.02-.26-.6-.79-1.86-1.48-3.52-2.34-5.6-6.63-15.82-8.77-20.17,11.17-9.57,18.68-29.11,22.19-40.01l.67-2.06h-12l-.31,1.17c-4.88,18.08-15.07,33.06-27.39,40.39v-41.56h-11.28v86.29h11.28v-33.9c2.7-1.22,5.24-2.6,7.92-4.3,1.08,2.26,2.59,5.91,4.18,9.75l.12.29c2.6,6.29,5.54,13.42,7.53,16.7,4.87,8.06,8.56,12.16,15.22,12.16,1.93,0,3.77-.28,5.62-.87l1.23-.38-.96-9.3-2.04,1.02Z"/>
  <path class="cls-1" d="M319.48,295.93l-.47-.7h-11.1l-.47.71c-13.16,19.86-20.37,56.68-24.11,84.08l-.25,1.8h11.3l.2-1.35c.24-1.67.51-3.68.81-5.88.94-6.97,2.22-16.43,3.63-22.55h28.41c1.52,6.38,2.77,16.22,3.68,23.47l.06.45c.21,1.67.4,3.19.58,4.49l.18,1.37h12.09l-.23-1.78c-3.52-26.99-10.6-63.48-24.32-84.1ZM301.33,342.24l.76-2.79c2.96-10.93,6.62-24.41,11.12-33.2,4.2,8.29,7.67,20.83,10.49,31l.21.75c.41,1.47.8,2.88,1.18,4.24h-23.76Z"/>
  <path class="cls-1" d="M471.67,380.03c-3.52-26.98-10.6-63.48-24.31-84.1l-.47-.7h-11.1l-.47.71c-13.16,19.86-20.37,56.68-24.11,84.08l-.25,1.8h11.3l.2-1.35c.24-1.67.51-3.68.81-5.88.94-6.96,2.21-16.42,3.63-22.55h28.42c1.52,6.41,2.77,16.24,3.68,23.47.23,1.85.45,3.53.64,4.94l.18,1.37h12.09l-.23-1.78ZM429.2,342.24l.76-2.79c2.96-10.93,6.62-24.41,11.12-33.2,4.2,8.29,7.67,20.83,10.49,31l.08.28c.45,1.63.89,3.21,1.31,4.71h-23.76Z"/>
  <path class="cls-1" d="M401.65,372.98c-.44.22-.9.33-1.37.33-3.08,0-7.17-8.17-8.71-11.24-1.7-3.39-4.07-8.53-6.21-13.14-1.34-2.89-2.49-5.37-3.28-7.01,9.33-2.78,16-12.17,16-22.69,0-17.49-15.57-23.7-28.91-23.7h-17.92v86.29h11.28v-37.41h6.74c1.07,0,1.91.15,3.1,2.11.78,1.28,1.98,3.99,3.43,7.28,1.98,4.48,4.23,9.55,6.37,13.09l1.22,2.04c4.54,7.59,8.13,13.58,14.19,13.58,1.93,0,3.6-.25,5.77-.85l1.29-.36-.97-9.34-2.04,1.02ZM369.49,334.81h-6.94v-29.39h6.64c8.35,0,17.33,4.44,17.33,14.2s-8.78,15.19-17.04,15.19Z"/>
</svg>