<svg width="20" height="21" viewBox="0 0 20 21" fill="none" xmlns="http://www.w3.org/2000/svg">
<rect y="0.658203" width="20" height="20" rx="10" fill="white"/>
<g clip-path="url(#clip0_4_241)">
<rect width="10.2353" height="13.3846" transform="translate(4.88232 3.96582)" fill="white"/>
<path d="M13.364 5.8024C12.521 4.99309 11.3543 4.54736 10.079 4.54736C8.13078 4.54736 6.93256 5.34594 6.27044 6.01584C5.45442 6.84141 4.98651 7.93761 4.98651 9.02341C4.98651 10.3867 5.55675 11.4331 6.51168 11.8224C6.57579 11.8486 6.6403 11.8618 6.70354 11.8618C6.905 11.8618 7.06463 11.73 7.11993 11.5186C7.15217 11.3973 7.22685 11.098 7.25933 10.9681C7.32885 10.7116 7.27269 10.5882 7.12108 10.4095C6.84489 10.0827 6.71627 9.69626 6.71627 9.19334C6.71627 7.69948 7.82862 6.11183 9.89025 6.11183C11.5261 6.11183 12.5422 7.04157 12.5422 8.53818C12.5422 9.4826 12.3388 10.3572 11.9693 11.001C11.7125 11.4484 11.261 11.9817 10.5679 11.9817C10.2682 11.9817 9.99894 11.8585 9.82906 11.6439C9.66858 11.441 9.61566 11.1788 9.68022 10.9057C9.75314 10.597 9.85258 10.275 9.94881 9.96376C10.1243 9.39527 10.2902 8.85833 10.2902 8.42994C10.2902 7.6972 9.83975 7.20485 9.16938 7.20485C8.31743 7.20485 7.64998 8.07015 7.64998 9.17479C7.64998 9.71655 7.79395 10.1218 7.85914 10.2773C7.75181 10.7321 7.11395 13.4356 6.99296 13.9454C6.92299 14.243 6.50156 16.5935 7.1991 16.7808C7.98284 16.9915 8.68339 14.7022 8.7547 14.4435C8.81249 14.2331 9.01469 13.4376 9.1386 12.9486C9.51695 13.3131 10.1261 13.5594 10.7189 13.5594C11.8363 13.5594 12.8413 13.0566 13.5486 12.1436C14.2346 11.2581 14.6125 10.0238 14.6125 8.6684C14.6124 7.60877 14.1573 6.56412 13.364 5.8024Z" fill="#0D0D0D"/>
</g>
<defs>
<clipPath id="clip0_4_241">
<rect width="10.2353" height="13.3846" fill="white" transform="translate(4.88232 3.96582)"/>
</clipPath>
</defs>
</svg>
