<svg width="20" height="21" viewBox="0 0 20 21" fill="none" xmlns="http://www.w3.org/2000/svg">
<rect y="0.658203" width="20" height="20" rx="10" fill="white"/>
<rect width="16" height="12.2353" transform="translate(2 4.54053)" fill="white"/>
<path d="M17.2976 10.6273C17.2976 10.5909 17.2976 10.5505 17.2976 10.5031C17.2976 10.371 17.2926 10.2224 17.2891 10.0633C17.2757 9.60749 17.2528 9.15418 17.2173 8.72631C17.1852 8.23781 17.1119 7.75289 16.9984 7.27666C16.8949 6.89158 16.6921 6.5404 16.4105 6.25813C16.1288 5.97585 15.778 5.77235 15.3932 5.66791C14.5215 5.50496 13.6369 5.4215 12.7502 5.41857C12.1448 5.39563 11.496 5.38117 10.8482 5.37269C10.6213 5.3692 10.4099 5.36771 10.2204 5.36621H9.74116C9.55165 5.36621 9.34221 5.3692 9.11332 5.37269C8.46504 5.38117 7.81675 5.39563 7.21135 5.41857C6.32469 5.42288 5.44017 5.50632 4.56835 5.66791C4.18366 5.77213 3.83312 5.9756 3.55183 6.25795C3.27054 6.54029 3.06838 6.89158 2.96559 7.27666C2.85147 7.75276 2.77823 8.23775 2.74667 8.72631C2.71126 9.15418 2.68832 9.60749 2.67486 10.0633C2.66987 10.2224 2.66838 10.3705 2.66638 10.5031C2.66638 10.553 2.66638 10.5909 2.66638 10.6273V10.7185C2.66638 10.7549 2.66638 10.7953 2.66638 10.8427C2.66638 10.9749 2.67137 11.124 2.67486 11.2825C2.68832 11.7383 2.71126 12.1917 2.74667 12.6195C2.77929 13.1081 2.85251 13.5932 2.96559 14.0697C3.06876 14.4549 3.27136 14.8063 3.5531 15.0885C3.83484 15.3708 4.18581 15.574 4.57084 15.6779C5.44241 15.8413 6.32709 15.9248 7.21385 15.9273C7.82024 15.9502 8.46802 15.9647 9.11581 15.9731C9.34271 15.9766 9.55415 15.9781 9.74365 15.9801H10.2229C10.4124 15.9801 10.6218 15.9766 10.8507 15.9731C11.499 15.9647 12.1473 15.9502 12.7527 15.9273C13.6394 15.923 14.5239 15.8395 15.3957 15.6779C15.7809 15.5744 16.1321 15.3712 16.4139 15.0889C16.6955 14.8065 16.8981 14.455 17.001 14.0697C17.1154 13.5933 17.1886 13.108 17.2199 12.619C17.2553 12.1912 17.2782 11.7378 17.2917 11.2821C17.2967 11.124 17.2982 10.9749 17.3002 10.8422C17.3002 10.7923 17.3002 10.7545 17.3002 10.7181L17.2976 10.6273ZM16.1223 10.7121C16.1223 10.746 16.1223 10.7839 16.1223 10.8278C16.1223 10.9554 16.1173 11.096 16.1138 11.2476C16.1028 11.6815 16.0798 12.1163 16.0455 12.5193C16.0184 12.9391 15.9574 13.356 15.863 13.766C15.8129 13.9516 15.7151 14.1208 15.5794 14.2569C15.4436 14.393 15.2745 14.4911 15.089 14.5414C14.3021 14.6749 13.5059 14.7447 12.7078 14.7504C12.1133 14.7733 11.4731 14.7878 10.8348 14.7963C10.6114 14.7992 10.4034 14.8013 10.2174 14.8013H9.74764L9.13027 14.7963C8.49196 14.7878 7.85315 14.7733 7.25724 14.7504C6.45922 14.7438 5.663 14.6739 4.87603 14.5414C4.69062 14.491 4.52165 14.3928 4.38594 14.2568C4.25024 14.1207 4.15255 13.9515 4.10258 13.766C4.00762 13.3561 3.94641 12.9392 3.91956 12.5193C3.88566 12.1163 3.86371 11.682 3.85125 11.2476C3.84626 11.098 3.84427 10.9534 3.84277 10.8278C3.84277 10.7839 3.84277 10.745 3.84277 10.7121V10.6333C3.84277 10.5994 3.84277 10.5615 3.84277 10.5176C3.84277 10.3899 3.84776 10.2498 3.85125 10.0982C3.86221 9.66334 3.88516 9.22949 3.91956 8.82605C3.94632 8.40617 4.00753 7.9892 4.10258 7.57936C4.15244 7.39365 4.25022 7.2243 4.38615 7.08829C4.52207 6.95228 4.69135 6.85438 4.87703 6.8044C5.66391 6.67127 6.46019 6.6014 7.25822 6.59546C7.85265 6.57252 8.49296 6.55806 9.13127 6.55008C9.35468 6.54659 9.56263 6.54509 9.74863 6.54509H10.2154L10.8328 6.55008C11.4711 6.55756 12.1099 6.57252 12.7058 6.59546C13.5038 6.60206 14.3001 6.67193 15.087 6.8044C15.2724 6.85509 15.4414 6.95335 15.5772 7.08946C15.713 7.22557 15.8108 7.39478 15.8609 7.58035C15.9554 7.99029 16.0165 8.40723 16.0435 8.82705C16.0774 9.23048 16.0993 9.66434 16.1118 10.0992C16.1173 10.2488 16.1188 10.3924 16.1203 10.5186C16.1203 10.5625 16.1203 10.6024 16.1203 10.6343L16.1223 10.7121ZM8.52887 12.8609L12.3188 10.6562L8.52887 8.48446V12.8609Z" fill="#0D0D0D"/>
</svg>
